<svg xmlns="http://www.w3.org/2000/svg" width="50.44096" height="49.52621" viewBox="0 0 50.44096 49.52621" creator="Katerina Limpitsouni"><path d="M1.84644,1.58409C.44163,16.71335-.16235,31.90823,.03716,47.10126c.00547,.41635,.33955,.73511,.75,.75,15.38984,.5582,30.77967,1.1164,46.16951,1.67461,.29945,.01086,.67105-.23858,.72321-.55062,2.52389-15.10011,3.32945-30.44594,2.36732-45.72607-.02773-.44042-.32393-.70122-.75-.75C33.83294,.72875,18.27256-.10258,2.70769,.01009c-.96483,.00698-.96703,1.507,0,1.5,15.56487-.11266,31.12525,.71866,46.58951,2.48908l-.75-.75c.95344,15.14205,.18761,30.36207-2.31374,45.32732l.72321-.55062c-15.38984-.5582-30.77967-1.1164-46.16951-1.67461l.75,.75c-.19951-15.19303,.40447-30.38791,1.80927-45.51717,.08921-.96076-1.41136-.95467-1.5,0h0Z" fill="#013d29" origin="undraw"/><path d="M24.81277,9.65226c-.94505,.13004-1.98604,.414-2.45858,1.33666-.49002,.95679-.07617,2.04351,.84797,2.55028,.94419,.51777,2.00876,.27286,2.98281-.01486,.91531-.27037,1.9008-.75723,2.09435-1.7952,.09976-.53501-.01837-1.08471-.41523-1.47584-.35543-.3503-.85116-.48187-1.33683-.5019-.45185-.01863-.94223,.04441-1.37881,.15389-.49224,.12343-.947,.37853-1.25934,.7828-.3257,.42157-.46888,.9708-.30389,1.49057,.14688,.46271,.50291,.86116,.93444,1.08008,.47703,.242,1.01353,.29641,1.54141,.26399,.46753-.02871,.93589-.07476,1.36024-.28767,.53335-.2676,.87475-.85886,.71677-1.45769-.17066-.64688-.81242-1.03839-1.45851-1.03372-.57495,.00416-1.16031,.26246-1.66399,.51742-.49493,.25053-.94893,.58062-1.35996,.95197-.29194,.26376-.28816,.79614,0,1.06066,.3119,.28632,.74925,.28135,1.06066,0,.24904-.225,.35124-.30464,.65076-.48997,.13186-.08159,.26723-.15751,.40562-.22746,.06924-.035,.13942-.06775,.20978-.10041,.08292-.03666,.09451-.04187,.03476-.01563,.04797-.01924,.09622-.03778,.14473-.05562,.15122-.0556,.30977-.11536,.46962-.14015-.11819,.01833,.12957,.00094,.13032,.00106l-.03626-.00237c.082,.02563,.08221,.02428,.00066-.00403l.05522,.0344c-.04105-.01795-.07066-.04745-.08882-.08852,.09063,.09641-.01204-.01313-.01651-.08356-.00291-.04586,.09652-.24352,.02391-.13634,.06837-.08386,.07407-.09661,.0171-.03826,.08392-.06207,.09105-.07049,.0214-.02525-.15666,.08993,.15192-.03517-.02814,.01694-.05699,.01649-.11256,.0354-.17038,.04927-.0578,.01386-.11603,.02346-.17444,.03413,.21384-.03905-.02885-.00075-.05425,.00149-.13891,.01225-.27811,.02331-.41754,.02732-.08329,.0024-.16669,.00298-.24996-.00055-.05518-.00215-.11025-.00606-.16518-.01172,.06322,.00752,.04831,.0032-.04473-.01298-.07367-.02095-.14792-.03702-.21927-.06577,.16067,.06474-.02833-.02793-.05023-.03909-.15542-.0792,.06408,.09012-.05154-.03903-.02239-.02501-.1323-.17866-.04642-.03991-.02343-.03786-.08051-.19908-.03486-.04175l-.01771-.05907c-.01818-.08535-.0179-.08052,.00085,.01452l.00116-.06462c-.01504,.09329-.01293,.09698,.00636,.01108,.0278-.08129,.02686-.08065-.00281,.00193,.02028-.03811,.04277-.07487,.06747-.11029-.09182,.13307,.03829-.02759,.05481-.04524,.11874-.12688-.09852,.03326,.05748-.04148,.00707-.00339,.20581-.10488,.08862-.05451,.0706-.03035,.14748-.05125,.22155-.07109,.07542-.0202,.15186-.03641,.22861-.05064,.00075-.00014,.25421-.03718,.11102-.01898,.1592-.02024,.31982-.03621,.48031-.04082,.10961-.00315,.21912-.00076,.3283,.00983-.17953-.0174,.02054,.00938,.05162,.01778,.05075,.01371,.18432,.09758,.04981,.01217l.05253,.02984c.06983,.04649,.06711,.04437-.00818-.00637l.04264,.0446c-.0517-.06903-.05522-.06782-.01056,.00361l-.0283-.065c.01992,.08495,.0231,.07889,.00957-.01816,.00366,.04155,.00455,.08316,.00268,.12483,.01761-.09439,.01796-.09794,.00107-.01066-.00716,.024-.07804,.21839-.00878,.0657-.02717,.05989-.0614,.11513-.09633,.17063,.08395-.13341-.0298,.02524-.04857,.04673-.12597,.14418,.08392-.0368-.076,.06546-.06168,.03944-.12326,.07759-.18797,.11196-.00505,.00268-.22208,.10386-.08825,.04721-.15939,.06747-.32725,.11709-.49287,.16657-.31807,.09502-.63692,.17826-.961,.24958-.16453,.03621-.54895,.0433-.72131-.00338-.02326-.0063-.22032-.0797-.06402-.01174-.08015-.03485-.15176-.08168-.22732-.12465-.16044-.09125,.07302,.09399-.05078-.04067-.02938-.03195-.17175-.22711-.08761-.08632-.03184-.05329-.06562-.10432-.09048-.16155,.03627,.08461,.04095,.0865,.01404,.00567-.01758-.0854-.01828-.08019-.00211,.01564-.00014-.03914,.03081-.2229-.00715-.06291,.00911-.0433,.02087-.08587,.03529-.1277-.03522,.07613-.03344,.07509,.00534-.00311,.00961-.01477,.13448-.19111,.0355-.0702,.05748-.07022,.12388-.1348,.19362-.19274-.11807,.09809,.05644-.03172,.07133-.04055,.04212-.02481,.08516-.0479,.12912-.06929,.08231-.03909,.09475-.04457,.03734-.01645,.34587-.12913,.71625-.17834,1.07997-.22839,.3901-.05368,.63714-.57245,.52383-.92259-.13867-.42852-.50446-.58136-.92259-.52383h0Z" fill="#013d29"/></svg>